{
  "accessors": [
    {
      "bufferView": 2,
      "componentType": 5126,
      "count": 2606,
      "max": [
        1.0489859580993652,
        2.254030227661133,
        0.10005776584148407
      ],
      "min": [
        -1.0489859580993652,
        -2.176975965499878,
        -7.450573047407261e-09
      ],
      "type": "VEC3"
    },
    {
      "bufferView": 2,
      "byteOffset": 31272,
      "componentType": 5126,
      "count": 2606,
      "max": [
        1.0,
        1.0,
        1.0
      ],
      "min": [
        -1.0,
        -1.0,
        -1.0
      ],
      "type": "VEC3"
    },
    {
      "bufferView": 3,
      "componentType": 5126,
      "count": 2606,
      "max": [
        1.0,
        1.0,
        1.0,
        1.0
      ],
      "min": [
        -1.0,
        -1.0,
        -1.0,
        1.0
      ],
      "type": "VEC4"
    },
    {
      "bufferView": 1,
      "componentType": 5126,
      "count": 2606,
      "max": [
        0.9997043609619141,
        0.9902894496917725
      ],
      "min": [
        0.0002957431133836508,
        0.0002957582473754883
      ],
      "type": "VEC2"
    },
    {
      "bufferView": 1,
      "byteOffset": 20848,
      "componentType": 5126,
      "count": 2606,
      "max": [
        0.9997043609619141,
        0.9902894496917725
      ],
      "min": [
        0.0002957431133836508,
        0.0002957582473754883
      ],
      "type": "VEC2"
    },
    {
      "bufferView": 1,
      "byteOffset": 41696,
      "componentType": 5126,
      "count": 2606,
      "max": [
        0.9997043609619141,
        0.9902894496917725
      ],
      "min": [
        0.0002957431133836508,
        0.0002957582473754883
      ],
      "type": "VEC2"
    },
    {
      "bufferView": 1,
      "byteOffset": 62544,
      "componentType": 5126,
      "count": 2606,
      "max": [
        0.9997043609619141,
        0.9902894496917725
      ],
      "min": [
        0.0002957431133836508,
        0.0002957582473754883
      ],
      "type": "VEC2"
    },
    {
      "bufferView": 1,
      "byteOffset": 83392,
      "componentType": 5126,
      "count": 2606,
      "max": [
        0.9997043609619141,
        0.9902894496917725
      ],
      "min": [
        0.0002957431133836508,
        0.0002957582473754883
      ],
      "type": "VEC2"
    },
    {
      "bufferView": 0,
      "componentType": 5125,
      "count": 4434,
      "type": "SCALAR"
    }
  ],
  "asset": {
    "extras": {
      "author": "Incg5764 (https://sketchfab.com/incg5764)",
      "license": "CC-BY-4.0 (http://creativecommons.org/licenses/by/4.0/)",
      "source": "https://sketchfab.com/3d-models/cute-key-4234dafdff39484fa6cecd65ebf5bc84",
      "title": "Cute Key"
    },
    "generator": "Sketchfab-14.35.0",
    "version": "2.0"
  },
  "bufferViews": [
    {
      "buffer": 0,
      "byteLength": 17736,
      "name": "floatBufferViews",
      "target": 34963
    },
    {
      "buffer": 0,
      "byteLength": 104240,
      "byteOffset": 17736,
      "byteStride": 8,
      "name": "floatBufferViews",
      "target": 34962
    },
    {
      "buffer": 0,
      "byteLength": 62544,
      "byteOffset": 121976,
      "byteStride": 12,
      "name": "floatBufferViews",
      "target": 34962
    },
    {
      "buffer": 0,
      "byteLength": 41696,
      "byteOffset": 184520,
      "byteStride": 16,
      "name": "floatBufferViews",
      "target": 34962
    }
  ],
  "buffers": [
    {
      "byteLength": 226216,
      "uri": "scene.bin"
    }
  ],
  "images": [
    {
      "uri": "textures/Material.002_baseColor.png"
    },
    {
      "uri": "textures/Material.002_metallicRoughness.png"
    },
    {
      "uri": "textures/Material.002_normal.png"
    }
  ],
  "materials": [
    {
      "name": "Material.002",
      "normalTexture": {
        "index": 2
      },
      "occlusionTexture": {
        "index": 1
      },
      "pbrMetallicRoughness": {
        "baseColorTexture": {
          "index": 0
        },
        "metallicRoughnessTexture": {
          "index": 1
        },
        "roughnessFactor": 0.4556204361765674
      }
    }
  ],
  "meshes": [
    {
      "name": "Object_0",
      "primitives": [
        {
          "attributes": {
            "NORMAL": 1,
            "POSITION": 0,
            "TANGENT": 2,
            "TEXCOORD_0": 3,
            "TEXCOORD_1": 4,
            "TEXCOORD_2": 5,
            "TEXCOORD_3": 6,
            "TEXCOORD_4": 7
          },
          "indices": 8,
          "material": 0,
          "mode": 4
        }
      ]
    }
  ],
  "nodes": [
    {
      "children": [
        1
      ],
      "matrix": [
        1.0,
        0.0,
        0.0,
        0.0,
        0.0,
        2.220446049250313e-16,
        -1.0,
        0.0,
        0.0,
        1.0,
        2.220446049250313e-16,
        0.0,
        0.0,
        0.0,
        0.0,
        1.0
      ],
      "name": "Sketchfab_model"
    },
    {
      "children": [
        2
      ],
      "name": "root"
    },
    {
      "children": [
        3
      ],
      "matrix": [
        1.0,
        0.0,
        0.0,
        0.0,
        0.0,
        2.220446049250313e-16,
        1.0,
        0.0,
        0.0,
        -1.0,
        2.220446049250313e-16,
        0.0,
        0.0,
        0.0,
        0.0,
        1.0
      ],
      "name": "GLTF_SceneRootNode"
    },
    {
      "children": [
        4
      ],
      "name": "RootNode_2"
    },
    {
      "children": [
        5
      ],
      "matrix": [
        1.0,
        0.0,
        -0.0,
        0.0,
        -0.0,
        -1.685873969314855e-07,
        -0.9999999999999858,
        0.0,
        0.0,
        0.9999999999999858,
        -1.685873969314855e-07,
        0.0,
        0.0,
        0.0,
        0.0,
        1.0
      ],
      "name": "Plane_1"
    },
    {
      "children": [
        6
      ],
      "name": "Plane.001_0"
    },
    {
      "mesh": 0,
      "name": "Object_6"
    }
  ],
  "samplers": [
    {
      "magFilter": 9729,
      "minFilter": 9987,
      "wrapS": 10497,
      "wrapT": 10497
    }
  ],
  "scene": 0,
  "scenes": [
    {
      "name": "Sketchfab_Scene",
      "nodes": [
        0
      ]
    }
  ],
  "textures": [
    {
      "sampler": 0,
      "source": 0
    },
    {
      "sampler": 0,
      "source": 1
    },
    {
      "sampler": 0,
      "source": 2
    }
  ]
}
