{
  "accessors": [
    {
      "bufferView": 2,
      "componentType": 5126,
      "count": 1870,
      "max": [
        0.019094081595540047,
        0.006794312037527561,
        0.0044655948877334595
      ],
      "min": [
        -0.016067055985331535,
        -0.004292941652238369,
        -0.010781856253743172
      ],
      "type": "VEC3"
    },
    {
      "bufferView": 2,
      "byteOffset": 22440,
      "componentType": 5126,
      "count": 1870,
      "max": [
        1.0,
        0.999870240688324,
        1.0
      ],
      "min": [
        -1.0,
        -0.9998693466186523,
        -1.0
      ],
      "type": "VEC3"
    },
    {
      "bufferView": 1,
      "componentType": 5126,
      "count": 1870,
      "max": [
        1.0,
        1.0
      ],
      "min": [
        0.0,
        0.0
      ],
      "type": "VEC2"
    },
    {
      "bufferView": 0,
      "componentType": 5125,
      "count": 6333,
      "type": "SCALAR"
    }
  ],
  "asset": {
    "extras": {
      "author": "Veebroush (https://sketchfab.com/veebroush)",
      "license": "SKETCHFAB Standard (https://sketchfab.com/licenses)",
      "source": "https://sketchfab.com/3d-models/keys-a24e69aced3a4e92aaa43ceb63952d6f",
      "title": "Keys"
    },
    "generator": "Sketchfab-15.61.0",
    "version": "2.0"
  },
  "bufferViews": [
    {
      "buffer": 0,
      "byteLength": 25332,
      "name": "floatBufferViews",
      "target": 34963
    },
    {
      "buffer": 0,
      "byteLength": 14960,
      "byteOffset": 25332,
      "byteStride": 8,
      "name": "floatBufferViews",
      "target": 34962
    },
    {
      "buffer": 0,
      "byteLength": 44880,
      "byteOffset": 40292,
      "byteStride": 12,
      "name": "floatBufferViews",
      "target": 34962
    }
  ],
  "buffers": [
    {
      "byteLength": 85172,
      "uri": "scene.bin"
    }
  ],
  "materials": [
    {
      "doubleSided": true,
      "name": "Metal",
      "pbrMetallicRoughness": {
        "baseColorFactor": [
          0.6,
          0.6,
          0.6,
          1.0
        ],
        "roughnessFactor": 0.1
      }
    }
  ],
  "meshes": [
    {
      "name": "Object_0",
      "primitives": [
        {
          "attributes": {
            "NORMAL": 1,
            "POSITION": 0,
            "TEXCOORD_0": 2
          },
          "indices": 3,
          "material": 0,
          "mode": 4
        }
      ]
    }
  ],
  "nodes": [
    {
      "children": [
        1
      ],
      "matrix": [
        2.3117973804473877,
        0.0,
        0.0,
        0.0,
        0.0,
        5.133221360081625e-16,
        -2.3117973804473877,
        0.0,
        0.0,
        2.3117973804473877,
        5.133221360081625e-16,
        0.0,
        0.0,
        0.0,
        0.0,
        1.0
      ],
      "name": "Sketchfab_model"
    },
    {
      "children": [
        2
      ],
      "name": "root"
    },
    {
      "children": [
        3
      ],
      "matrix": [
        1.0,
        0.0,
        0.0,
        0.0,
        0.0,
        2.220446049250313e-16,
        1.0,
        0.0,
        0.0,
        -1.0,
        2.220446049250313e-16,
        0.0,
        0.0,
        0.0,
        0.0,
        1.0
      ],
      "name": "GLTF_SceneRootNode"
    },
    {
      "children": [
        4
      ],
      "matrix": [
        1.831190098811587,
        -0.43031635716032757,
        8.361107259047066e-10,
        0.0,
        0.3822692979480832,
        1.62672820253394,
        0.8637446869025018,
        0.0,
        -0.19759137401722335,
        -0.8408403731186359,
        1.6710399340150504,
        0.0,
        0.0,
        0.0,
        0.0,
        1.0
      ],
      "name": "Keys_2"
    },
    {
      "mesh": 0,
      "name": "Object_4"
    }
  ],
  "scene": 0,
  "scenes": [
    {
      "name": "Sketchfab_Scene",
      "nodes": [
        0
      ]
    }
  ]
}
